<mxfile host="Electron" modified="2024-03-23T12:03:25.264Z" agent="Mozilla/5.0 (Macintosh; Intel Mac OS X 10_15_7) AppleWebKit/537.36 (KHTML, like Gecko) draw.io/22.1.11 Chrome/114.0.5735.289 Electron/25.9.8 Safari/537.36" etag="6SmBAm7ZWwCeK_pDsVuQ" version="22.1.11" type="device">
  <diagram name="第 1 页" id="LbLHYrfMs61iux43dW0h">
    <mxGraphModel dx="954" dy="589" grid="1" gridSize="10" guides="1" tooltips="1" connect="1" arrows="1" fold="1" page="1" pageScale="1" pageWidth="827" pageHeight="1169" math="0" shadow="0">
      <root>
        <mxCell id="0" />
        <mxCell id="1" parent="0" />
        <mxCell id="aC8qxurW8rgIftqlnhW2-2" value="" style="edgeStyle=orthogonalEdgeStyle;rounded=0;orthogonalLoop=1;jettySize=auto;html=1;entryX=0;entryY=0.5;entryDx=0;entryDy=0;" parent="1" source="njytcRA9__mMUklmKUCp-1" target="aC8qxurW8rgIftqlnhW2-1" edge="1">
          <mxGeometry relative="1" as="geometry" />
        </mxCell>
        <mxCell id="aC8qxurW8rgIftqlnhW2-5" style="edgeStyle=orthogonalEdgeStyle;rounded=0;orthogonalLoop=1;jettySize=auto;html=1;" parent="1" source="njytcRA9__mMUklmKUCp-1" target="aC8qxurW8rgIftqlnhW2-4" edge="1">
          <mxGeometry relative="1" as="geometry" />
        </mxCell>
        <mxCell id="aC8qxurW8rgIftqlnhW2-6" style="edgeStyle=orthogonalEdgeStyle;rounded=0;orthogonalLoop=1;jettySize=auto;html=1;entryX=0;entryY=0.5;entryDx=0;entryDy=0;" parent="1" source="njytcRA9__mMUklmKUCp-1" target="aC8qxurW8rgIftqlnhW2-3" edge="1">
          <mxGeometry relative="1" as="geometry" />
        </mxCell>
        <mxCell id="njytcRA9__mMUklmKUCp-1" value="生产要素定价理论" style="rounded=0;whiteSpace=wrap;html=1;" parent="1" vertex="1">
          <mxGeometry x="40" y="200" width="120" height="60" as="geometry" />
        </mxCell>
        <mxCell id="aC8qxurW8rgIftqlnhW2-26" value="" style="edgeStyle=orthogonalEdgeStyle;rounded=0;orthogonalLoop=1;jettySize=auto;html=1;" parent="1" source="aC8qxurW8rgIftqlnhW2-1" target="aC8qxurW8rgIftqlnhW2-25" edge="1">
          <mxGeometry relative="1" as="geometry" />
        </mxCell>
        <mxCell id="aC8qxurW8rgIftqlnhW2-1" value="1.生产要素市场的特点" style="rounded=0;whiteSpace=wrap;html=1;" parent="1" vertex="1">
          <mxGeometry x="240" y="80" width="120" height="60" as="geometry" />
        </mxCell>
        <mxCell id="aC8qxurW8rgIftqlnhW2-8" value="" style="edgeStyle=orthogonalEdgeStyle;rounded=0;orthogonalLoop=1;jettySize=auto;html=1;" parent="1" source="aC8qxurW8rgIftqlnhW2-3" target="aC8qxurW8rgIftqlnhW2-7" edge="1">
          <mxGeometry relative="1" as="geometry" />
        </mxCell>
        <mxCell id="aC8qxurW8rgIftqlnhW2-14" style="edgeStyle=orthogonalEdgeStyle;rounded=0;orthogonalLoop=1;jettySize=auto;html=1;entryX=0;entryY=0.5;entryDx=0;entryDy=0;" parent="1" source="aC8qxurW8rgIftqlnhW2-3" target="aC8qxurW8rgIftqlnhW2-13" edge="1">
          <mxGeometry relative="1" as="geometry" />
        </mxCell>
        <mxCell id="aC8qxurW8rgIftqlnhW2-3" value="3.不完全竞争市场的生产要素定价" style="rounded=0;whiteSpace=wrap;html=1;" parent="1" vertex="1">
          <mxGeometry x="240" y="360" width="120" height="60" as="geometry" />
        </mxCell>
        <mxCell id="aC8qxurW8rgIftqlnhW2-10" value="" style="edgeStyle=orthogonalEdgeStyle;rounded=0;orthogonalLoop=1;jettySize=auto;html=1;entryX=0;entryY=0.5;entryDx=0;entryDy=0;" parent="1" source="aC8qxurW8rgIftqlnhW2-4" target="aC8qxurW8rgIftqlnhW2-9" edge="1">
          <mxGeometry relative="1" as="geometry" />
        </mxCell>
        <mxCell id="aC8qxurW8rgIftqlnhW2-12" style="edgeStyle=orthogonalEdgeStyle;rounded=0;orthogonalLoop=1;jettySize=auto;html=1;entryX=0;entryY=0.5;entryDx=0;entryDy=0;" parent="1" source="aC8qxurW8rgIftqlnhW2-4" target="aC8qxurW8rgIftqlnhW2-11" edge="1">
          <mxGeometry relative="1" as="geometry" />
        </mxCell>
        <mxCell id="aC8qxurW8rgIftqlnhW2-4" value="2.完全竞争市场的生产要素定价" style="rounded=0;whiteSpace=wrap;html=1;" parent="1" vertex="1">
          <mxGeometry x="240" y="200" width="120" height="60" as="geometry" />
        </mxCell>
        <mxCell id="aC8qxurW8rgIftqlnhW2-22" value="" style="edgeStyle=orthogonalEdgeStyle;rounded=0;orthogonalLoop=1;jettySize=auto;html=1;" parent="1" source="aC8qxurW8rgIftqlnhW2-7" target="aC8qxurW8rgIftqlnhW2-21" edge="1">
          <mxGeometry relative="1" as="geometry" />
        </mxCell>
        <mxCell id="aC8qxurW8rgIftqlnhW2-7" value="&lt;div style=&quot;background-color: rgb(255, 255, 255); font-family: Menlo, Monaco, &amp;quot;Courier New&amp;quot;, monospace; line-height: 18px;&quot;&gt;1.商品市场是不完全竞争而要素市场是完全竞争情况下的生产要素定价&lt;/div&gt;" style="rounded=0;whiteSpace=wrap;html=1;" parent="1" vertex="1">
          <mxGeometry x="440" y="320" width="140" height="60" as="geometry" />
        </mxCell>
        <mxCell id="aC8qxurW8rgIftqlnhW2-16" value="" style="edgeStyle=orthogonalEdgeStyle;rounded=0;orthogonalLoop=1;jettySize=auto;html=1;" parent="1" source="aC8qxurW8rgIftqlnhW2-9" target="aC8qxurW8rgIftqlnhW2-15" edge="1">
          <mxGeometry relative="1" as="geometry" />
        </mxCell>
        <mxCell id="aC8qxurW8rgIftqlnhW2-9" value="1.单个厂商对于生产要素的需求" style="rounded=0;whiteSpace=wrap;html=1;" parent="1" vertex="1">
          <mxGeometry x="440" y="160" width="120" height="60" as="geometry" />
        </mxCell>
        <mxCell id="aC8qxurW8rgIftqlnhW2-18" value="" style="edgeStyle=orthogonalEdgeStyle;rounded=0;orthogonalLoop=1;jettySize=auto;html=1;" parent="1" source="aC8qxurW8rgIftqlnhW2-11" target="aC8qxurW8rgIftqlnhW2-17" edge="1">
          <mxGeometry relative="1" as="geometry" />
        </mxCell>
        <mxCell id="aC8qxurW8rgIftqlnhW2-11" value="&lt;div style=&quot;background-color: rgb(255, 255, 255); font-family: Menlo, Monaco, &amp;quot;Courier New&amp;quot;, monospace; line-height: 18px;&quot;&gt;2.生产要素的市场需求、供给与均衡&lt;/div&gt;" style="rounded=0;whiteSpace=wrap;html=1;" parent="1" vertex="1">
          <mxGeometry x="440" y="240" width="120" height="60" as="geometry" />
        </mxCell>
        <mxCell id="aC8qxurW8rgIftqlnhW2-24" value="" style="edgeStyle=orthogonalEdgeStyle;rounded=0;orthogonalLoop=1;jettySize=auto;html=1;" parent="1" source="aC8qxurW8rgIftqlnhW2-13" target="aC8qxurW8rgIftqlnhW2-23" edge="1">
          <mxGeometry relative="1" as="geometry" />
        </mxCell>
        <mxCell id="aC8qxurW8rgIftqlnhW2-13" value="&lt;div style=&quot;background-color: rgb(255, 255, 255); font-family: Menlo, Monaco, &amp;quot;Courier New&amp;quot;, monospace; line-height: 18px;&quot;&gt;2.商品市场是不完全竞争而要素市场也是不完全竞争情况下的生产要素定价&lt;/div&gt;" style="rounded=0;whiteSpace=wrap;html=1;" parent="1" vertex="1">
          <mxGeometry x="440" y="400" width="140" height="60" as="geometry" />
        </mxCell>
        <mxCell id="aC8qxurW8rgIftqlnhW2-15" value="&lt;div&gt;1.单要素投入下厂商对于生产要素的需求&lt;/div&gt;&lt;div&gt;2.多要素投入下厂商对于生产要素的需求&lt;/div&gt;" style="rounded=0;whiteSpace=wrap;html=1;" parent="1" vertex="1">
          <mxGeometry x="640" y="160" width="120" height="60" as="geometry" />
        </mxCell>
        <mxCell id="aC8qxurW8rgIftqlnhW2-17" value="&lt;div style=&quot;background-color: rgb(255, 255, 255); font-family: Menlo, Monaco, &amp;quot;Courier New&amp;quot;, monospace; line-height: 18px;&quot;&gt;&lt;br&gt;&lt;/div&gt;" style="rounded=0;whiteSpace=wrap;html=1;" parent="1" vertex="1">
          <mxGeometry x="640" y="240" width="120" height="60" as="geometry" />
        </mxCell>
        <mxCell id="aC8qxurW8rgIftqlnhW2-21" value="&lt;div&gt;1.边际收益产量&lt;/div&gt;&lt;div&gt;2.单要素投入下厂商对于生产要素的需求&lt;/div&gt;&lt;div&gt;3.多要素投入下厂商对于生产要素的需求&lt;/div&gt;" style="rounded=0;whiteSpace=wrap;html=1;" parent="1" vertex="1">
          <mxGeometry x="640" y="320" width="120" height="60" as="geometry" />
        </mxCell>
        <mxCell id="aC8qxurW8rgIftqlnhW2-23" value="" style="rounded=0;whiteSpace=wrap;html=1;" parent="1" vertex="1">
          <mxGeometry x="640" y="400" width="120" height="60" as="geometry" />
        </mxCell>
        <mxCell id="aC8qxurW8rgIftqlnhW2-25" value="&lt;div&gt;1.生产要素定价理论&lt;/div&gt;&lt;div&gt;2.生产要素&lt;/div&gt;&lt;div&gt;3.生产要素市场的特点&lt;/div&gt;&lt;div&gt;4.生产要素的需求的影响因素&lt;/div&gt;" style="rounded=0;whiteSpace=wrap;html=1;" parent="1" vertex="1">
          <mxGeometry x="440" y="80" width="160" height="60" as="geometry" />
        </mxCell>
      </root>
    </mxGraphModel>
  </diagram>
</mxfile>
